# xmcd
#
# Track frame offsets:
#  150
#  18112
#  36677
#  50962
#  68860
#  84005
#  100110
#  119715
#  129927
#  147222
#  177145
#  190810
#  207130
#  221505
#  237070
#  257592
#  278637
#  304960
#  323290
#
# Disc length: 4629 seconds
#
# Revision: 1
# Processed by: cddbd v1.5.1PL2 Copyright (c) Steve Scherf et al.
# Submitted via: Collectorz.com Music Collector 6.9
#
DISCID=08121313
DTITLE=Mike McClellan - Time And Time Again - Cd1
DYEAR=2001
DGENRE=Country - Easy Listening - Vocal
TTITLE0=Some Other Sunrise
TTITLE1=There Is A Place (New England's Hills)
TTITLE2=Song And Danceman
TTITLE3=One Man Band
TTITLE4=Another Grey Day
TTITLE5=Rock'n Roll Lady
TTITLE6=Saturday Dance
TTITLE7=Catfish Rag
TTITLE8=The Gamble
TTITLE9=Takin' The Tide
TTITLE10=Midnight Flight
TTITLE11=Love Survives
TTITLE12=My Old Guitar And Me
TTITLE13=Lovers Never Wind Up Friends
TTITLE14=I Had An Old Dog
TTITLE15=Carry Me
TTITLE16=Sail Tonight
TTITLE17=California Cool
TTITLE18=You're Gonna Need Somebody On Your Bond
EXTD=
EXTT0=
EXTT1=
EXTT2=
EXTT3=
EXTT4=
EXTT5=
EXTT6=
EXTT7=
EXTT8=
EXTT9=
EXTT10=
EXTT11=
EXTT12=
EXTT13=
EXTT14=
EXTT15=
EXTT16=
EXTT17=
EXTT18=
PLAYORDER=
